# xmcd
#
# Track frame offsets:
#	150
#	14255
#	25303
#
# Disc length: 509 seconds
#
# Revision: 0
# Processed by: cddbd v1.5.2PL0 Copyright (c) Steve Scherf et al.
# Submitted via: audiograbber 1.83.01
#
DISCID=1901fb03
DTITLE=Tom Astor - Take it easy - Nimm's Leicht (Maxi)
DYEAR=1900
DGENRE=
TTITLE0=Take it easy - Nimm's leicht
TTITLE1=Vielen Dank für das freundliche Getue
TTITLE2=Home sweet Highway
EXTD=
EXTT0=
EXTT1=
EXTT2=
PLAYORDER=
